<?xml version="1.0" standalone="no"?>
<svg xmlns:xlink="http://www.w3.org/1999/xlink" id="wave" style="transform:rotate(180deg); transition: 0.3s" viewBox="0 0 1440 490" version="1.1" xmlns="http://www.w3.org/2000/svg"><defs><linearGradient id="sw-gradient-0" x1="0" x2="0" y1="1" y2="0"><stop stop-color="rgba(178, 221, 237, 1)" offset="0%"/><stop stop-color="rgba(178, 221, 237, 1)" offset="100%"/></linearGradient></defs><path style="transform:translate(0, 0px); opacity:1" fill="url(#sw-gradient-0)" d="M0,196L60,228.7C120,261,240,327,360,326.7C480,327,600,261,720,196C840,131,960,65,1080,89.8C1200,114,1320,229,1440,245C1560,261,1680,180,1800,122.5C1920,65,2040,33,2160,40.8C2280,49,2400,98,2520,155.2C2640,212,2760,278,2880,294C3000,310,3120,278,3240,245C3360,212,3480,180,3600,187.8C3720,196,3840,245,3960,277.7C4080,310,4200,327,4320,310.3C4440,294,4560,245,4680,212.3C4800,180,4920,163,5040,179.7C5160,196,5280,245,5400,228.7C5520,212,5640,131,5760,147C5880,163,6000,278,6120,277.7C6240,278,6360,163,6480,147C6600,131,6720,212,6840,204.2C6960,196,7080,98,7200,98C7320,98,7440,196,7560,204.2C7680,212,7800,131,7920,130.7C8040,131,8160,212,8280,236.8C8400,261,8520,229,8580,212.3L8640,196L8640,490L8580,490C8520,490,8400,490,8280,490C8160,490,8040,490,7920,490C7800,490,7680,490,7560,490C7440,490,7320,490,7200,490C7080,490,6960,490,6840,490C6720,490,6600,490,6480,490C6360,490,6240,490,6120,490C6000,490,5880,490,5760,490C5640,490,5520,490,5400,490C5280,490,5160,490,5040,490C4920,490,4800,490,4680,490C4560,490,4440,490,4320,490C4200,490,4080,490,3960,490C3840,490,3720,490,3600,490C3480,490,3360,490,3240,490C3120,490,3000,490,2880,490C2760,490,2640,490,2520,490C2400,490,2280,490,2160,490C2040,490,1920,490,1800,490C1680,490,1560,490,1440,490C1320,490,1200,490,1080,490C960,490,840,490,720,490C600,490,480,490,360,490C240,490,120,490,60,490L0,490Z"/></svg>